<?xml version="1.0" standalone="no"?>
<!DOCTYPE svg PUBLIC "-//W3C//DTD SVG 20010904//EN"
 "http://www.w3.org/TR/2001/REC-SVG-20010904/DTD/svg10.dtd">
<svg version="1.0" xmlns="http://www.w3.org/2000/svg"
 width="88.000000pt" height="88.000000pt" viewBox="0 0 88.000000 88.000000"
 preserveAspectRatio="xMidYMid meet">
<g transform="translate(0.000000,88.000000) scale(0.100000,-0.100000)"
fill="#000000" stroke="none">
<path d="M369 869 c-178 -20 -344 -185 -355 -353 l-4 -61 15 33 c9 18 13 37
10 43 -4 5 -2 9 3 9 9 0 25 54 19 64 -1 2 7 14 18 26 11 12 19 25 18 29 -2 3
1 6 6 6 5 0 13 4 18 9 5 5 3 6 -4 2 -24 -14 -13 6 26 46 22 22 44 37 49 34 5
-3 16 2 23 12 13 16 12 16 -6 2 -20 -14 -20 -14 -1 7 10 13 23 20 27 17 5 -3
9 -1 9 5 0 6 6 8 14 5 8 -3 17 -1 20 5 7 11 72 31 114 37 13 1 29 8 37 14 10
8 19 9 28 3 6 -6 20 -11 30 -12 9 -1 26 -2 37 -3 11 -1 20 -6 20 -10 0 -4 8
-8 18 -8 10 0 28 -7 40 -16 13 -9 26 -14 29 -11 3 3 16 -7 30 -24 14 -16 29
-26 35 -23 5 3 27 -12 49 -35 22 -23 35 -41 28 -41 -7 0 0 -14 16 -30 16 -17
30 -36 31 -43 1 -6 8 -25 14 -42 7 -16 14 -43 16 -58 2 -16 8 -37 14 -47 7
-13 5 -31 -5 -60 -8 -23 -14 -44 -13 -48 1 -4 -4 -20 -11 -37 -7 -16 -14 -34
-15 -40 -1 -5 -6 -17 -11 -25 -5 -8 -10 -19 -10 -25 -1 -5 -7 -9 -14 -7 -7 1
-9 -2 -6 -8 9 -15 -82 -103 -97 -94 -6 4 -8 3 -4 -4 7 -11 -9 -25 -33 -29 -8
-1 -18 -8 -22 -15 -5 -7 -9 -10 -9 -5 0 4 -12 1 -27 -7 -16 -7 -46 -17 -68
-20 -73 -12 -76 -28 -5 -23 176 12 339 175 359 358 17 158 -23 284 -119 379
-57 58 -153 108 -218 116 -26 3 -58 6 -72 8 -14 1 -55 -1 -91 -5z m306 -89
c10 -11 16 -20 13 -20 -3 0 -13 9 -23 20 -10 11 -16 20 -13 20 3 0 13 -9 23
-20z"/>
<path d="M695 851 c-3 -5 -2 -12 3 -15 5 -3 9 1 9 9 0 17 -3 19 -12 6z"/>
<path d="M216 555 c-10 -8 -22 -12 -26 -10 -12 7 -62 -64 -54 -77 4 -7 3 -8
-5 -4 -17 11 -8 -58 12 -86 33 -47 43 -55 80 -67 31 -11 45 -10 87 4 28 9 48
21 44 26 -3 5 -1 9 4 9 14 0 32 47 32 84 0 50 -26 92 -71 115 -46 24 -76 26
-103 6z m109 -46 c30 -27 35 -37 35 -74 0 -37 -5 -47 -35 -74 -40 -35 -71 -39
-116 -15 -67 34 -70 135 -6 174 46 28 81 25 122 -11z"/>
<path d="M235 391 c-3 -5 -2 -12 3 -15 5 -3 9 1 9 9 0 17 -3 19 -12 6z"/>
<path d="M604 555 c-48 -21 -84 -70 -84 -114 0 -38 32 -115 44 -104 3 4 6 0 6
-7 0 -7 3 -11 6 -7 4 3 20 -1 36 -9 63 -33 155 19 165 94 3 22 3 51 0 65 -9
35 -52 81 -67 72 -8 -5 -11 -4 -7 2 4 6 -7 13 -24 17 -38 7 -37 8 -75 -9z
m102 -34 c66 -40 63 -140 -5 -175 -39 -20 -66 -20 -101 1 -33 19 -50 52 -50
96 1 35 12 54 50 80 32 22 68 21 106 -2z"/>
<path d="M14 364 c11 -170 183 -339 356 -351 71 -5 68 11 -5 23 -22 3 -52 13
-67 20 -16 8 -28 11 -28 8 0 -4 -9 1 -20 11 -11 10 -20 15 -20 10 0 -4 -7 -2
-15 5 -8 7 -12 17 -8 23 3 6 1 7 -5 3 -16 -10 -106 79 -96 95 4 8 3 9 -4 5
-10 -6 -18 6 -37 54 -1 3 -6 20 -10 38 -4 17 -12 32 -17 32 -5 0 -7 4 -3 9 3
6 -1 25 -10 43 l-15 33 4 -61z"/>
</g>
</svg>
